<svg width="134" height="29" viewBox="0 0 134 29" fill="none" xmlns="http://www.w3.org/2000/svg">
<rect x="11.457" y="10.6387" width="7.00961" height="7.00962" fill="white"/>
<path d="M12.6266 1.87695V5.08969H5.90903V23.1979H12.6266V26.4106H2.69629V1.87695H12.6266Z" fill="#4A99BF"/>
<path d="M17.2997 26.4106H27.2299V1.87695H17.2997V5.08969H24.0172V23.1979H17.2997V26.4106Z" fill="#4A99BF"/>
<path d="M38.5146 24.1005H42.0786L41.8524 8.43026L47.1701 24.1005H50.9604L56.2781 8.43026L56.0518 24.1005H59.6441V4.30055H54.1849L49.0935 20.282L44.0021 4.30055H38.5146V24.1005Z" fill="white"/>
<path d="M66.4972 24.4117C68.6186 24.4117 70.4289 23.3368 71.1926 21.6963C71.1926 22.8277 71.2775 23.4783 71.4189 24.1005H74.8415C74.6435 23.054 74.502 21.4134 74.502 19.886V15.1623C74.502 11.768 72.0412 9.44855 68.5337 9.44855C65.0263 9.44855 62.4806 11.6548 62.3109 14.7945L65.7052 14.8794C65.8466 13.2105 66.9215 12.2771 68.4206 12.2771C70.0612 12.2771 71.0229 13.352 71.0229 15.0774V15.5017L68.3923 15.7845C64.1777 16.2654 61.8866 17.7645 61.8866 20.4234C61.8866 22.8843 63.81 24.4117 66.4972 24.4117ZM65.394 20.1123C65.394 18.7263 66.582 18.1605 68.6469 17.906L71.0795 17.6231V18.3303C71.0795 20.48 69.552 21.9791 67.6003 21.9791C66.3557 21.9791 65.394 21.3568 65.394 20.1123Z" fill="white"/>
<path d="M85.0992 23.9874L85.0709 21.0457C83.5718 21.4983 82.0727 21.3285 82.0727 19.0657V12.7863H85.4952V9.87283H82.0727V6.28055H78.5652V9.87283H75.9912V12.7863H78.5652V19.3485C78.5652 23.9874 81.9878 24.8643 85.0992 23.9874Z" fill="white"/>
<path d="M87.5758 24.1005H91.0832V18.0474C91.0832 14.1723 93.6289 12.9277 96.3726 13.3237V9.84455C93.9684 9.36369 91.6206 10.4668 90.9984 13.7763L91.0832 9.87283H87.5758V24.1005Z" fill="white"/>
<path d="M98.0934 24.1005H101.601V9.87283H98.0934V24.1005ZM97.5843 5.5734C97.5843 6.87455 98.5743 7.86455 99.8471 7.86455C101.148 7.86455 102.138 6.87455 102.138 5.5734C102.138 4.30055 101.148 3.31055 99.8471 3.31055C98.5743 3.31055 97.5843 4.30055 97.5843 5.5734Z" fill="white"/>
<path d="M111.121 24.5248C114.968 24.5248 117.967 22.064 118.136 18.4434L114.657 18.1888C114.459 20.1688 112.903 21.4134 111.121 21.4134C109.028 21.4134 107.218 19.7728 107.218 16.9725C107.218 14.3985 108.83 12.5317 111.121 12.5317C112.988 12.5317 114.459 13.8045 114.657 15.5865L118.108 15.3037C117.91 11.8245 114.912 9.44855 111.121 9.44855C106.85 9.44855 103.711 12.6448 103.711 16.9725C103.711 21.3568 106.822 24.5248 111.121 24.5248Z" fill="white"/>
<path d="M124.196 24.4117C126.317 24.4117 128.127 23.3368 128.891 21.6963C128.891 22.8277 128.976 23.4783 129.117 24.1005H132.54C132.342 23.054 132.2 21.4134 132.2 19.886V15.1623C132.2 11.768 129.74 9.44855 126.232 9.44855C122.725 9.44855 120.179 11.6548 120.009 14.7945L123.404 14.8794C123.545 13.2105 124.62 12.2771 126.119 12.2771C127.76 12.2771 128.721 13.352 128.721 15.0774V15.5017L126.091 15.7845C121.876 16.2654 119.585 17.7645 119.585 20.4234C119.585 22.8843 121.508 24.4117 124.196 24.4117ZM123.092 20.1123C123.092 18.7263 124.28 18.1605 126.345 17.906L128.778 17.6231V18.3303C128.778 20.48 127.25 21.9791 125.299 21.9791C124.054 21.9791 123.092 21.3568 123.092 20.1123Z" fill="white"/>
</svg>
